<?xml version="1.0" encoding="UTF-8"?>
<svg id="MAIN_DRAWING" xmlns="http://www.w3.org/2000/svg" viewBox="0 0 877 974">
  <defs>
    <style>
      .cls-1, .cls-2 {
        fill: none;
      }

      .cls-3, .cls-4, .cls-5, .cls-6, .cls-7, .cls-8, .cls-2, .cls-9, .cls-10, .cls-11, .cls-12, .cls-13, .cls-14 {
        stroke: #000;
        stroke-miterlimit: 10;
      }

      .cls-3, .cls-4, .cls-7, .cls-8, .cls-9, .cls-10, .cls-13, .cls-14 {
        stroke-width: 2px;
      }

      .cls-3, .cls-15 {
        fill: #aa846e;
      }

      .cls-4 {
        fill: #ffe7d9;
      }

      .cls-16 {
        fill: #c0980b;
        opacity: .75;
      }

      .cls-5 {
        fill: #707070;
      }

      .cls-6, .cls-17, .cls-7 {
        fill: #fff;
      }

      .cls-8 {
        fill: #3d807f;
      }

      .cls-9 {
        fill: #8cbfbf;
      }

      .cls-10 {
        fill: #55301b;
      }

      .cls-11 {
        fill: #a5a4a4;
      }

      .cls-13 {
        fill: #f9f9f9;
      }

      .cls-14 {
        fill: #d1ffff;
      }
    </style>
  </defs>
  <circle class="cls-16" cx="436.19" cy="461.09" r="238.2"/>
  <path class="cls-8" d="M787.45,535.74c-9.95,13.34-31.34-.39-48.43-13.14-17.09-12.75-35.29-21.21-25.33-34.55,9.95-13.34,30.74-.09,47.83,12.67,17.09,12.75,35.88,21.68,25.93,35.02Z"/>
  <path class="cls-8" d="M259.05,680.95c0,20.83-4.18,39.85-17.06,39.85s-42.63-20.86-42.63-41.69,29.76-36.58,42.63-36.58,17.06,17.6,17.06,38.43Z"/>
  <path class="cls-8" d="M410.81,777.57c-3.05,6.9-4.38-4.29-11.93-4.29s-13.66-6.12-13.66-13.66,12.79-9.68,20.33-9.75c8.56-.08,8.71,19.89,5.26,27.7Z"/>
  <g>
    <path class="cls-15" d="M466.95,470c2.36,9.27,8.9,17.39,17.46,21.67-10.11-.18-20.11-4.26-27.46-11.21l10-10.46Z"/>
    <path d="M465.51,470.4c2.52,9.67,9.23,18.04,18.15,22.56.25-.93.5-1.86.76-2.8-9.77-.23-19.26-4.1-26.4-10.77v2.12c3.33-3.49,6.66-6.97,10-10.46,1.33-1.4-.78-3.52-2.12-2.12-3.33,3.49-6.66,6.97-10,10.46-.55.57-.6,1.56,0,2.12,7.72,7.22,17.95,11.4,28.52,11.65,1.45.03,2.1-2.12.76-2.8-8.26-4.19-14.43-11.8-16.77-20.77-.49-1.87-3.38-1.08-2.89.8Z"/>
  </g>
  <g>
    <path class="cls-15" d="M484.97,409.57c2.36,9.27,8.9,17.39,17.46,21.67-10.11-.18-20.11-4.26-27.46-11.21l10-10.46Z"/>
    <path d="M483.52,409.97c2.52,9.67,9.23,18.04,18.15,22.56l.76-2.8c-9.77-.23-19.26-4.1-26.4-10.77v2.12c3.33-3.49,6.66-6.97,10-10.46,1.33-1.4-.78-3.52-2.12-2.12-3.33,3.49-6.66,6.97-10,10.46-.55.57-.6,1.56,0,2.12,7.72,7.22,17.95,11.4,28.52,11.65,1.45.03,2.1-2.12.76-2.8-8.26-4.19-14.43-11.8-16.77-20.77-.49-1.87-3.38-1.08-2.89.8Z"/>
  </g>
  <g>
    <path class="cls-15" d="M472.66,460.08c4.5,4.75,11.11,7.41,17.65,7.11-6.1,3.26-13.42,4.16-20.13,2.46l2.48-9.57Z"/>
    <path d="M471.6,461.14c4.83,5.02,11.74,7.82,18.71,7.55-.25-.93-.5-1.86-.76-2.8-5.8,3.06-12.61,3.88-18.97,2.31l1.05,1.85c.83-3.19,1.65-6.38,2.48-9.57.48-1.87-2.41-2.67-2.89-.8-.83,3.19-1.65,6.38-2.48,9.57-.2.77.25,1.65,1.05,1.85,7.16,1.76,14.76.82,21.28-2.62,1.31-.69.71-2.85-.76-2.8-6.22.24-12.27-2.19-16.59-6.67-1.34-1.39-3.46.73-2.12,2.12Z"/>
  </g>
  <g>
    <path class="cls-15" d="M401.25,470c-2.36,9.27-8.9,17.39-17.46,21.67,10.11-.18,20.11-4.26,27.46-11.21l-10-10.46Z"/>
    <path d="M399.81,469.6c-2.34,8.97-8.51,16.58-16.77,20.77-1.34.68-.69,2.83.76,2.8,10.57-.25,20.8-4.43,28.52-11.65.6-.56.55-1.55,0-2.12-3.33-3.49-6.66-6.97-10-10.46-1.34-1.4-3.46.73-2.12,2.12,3.33,3.49,6.66,6.97,10,10.46v-2.12c-7.14,6.68-16.63,10.54-26.4,10.77.25.93.5,1.86.76,2.8,8.92-4.52,15.63-12.89,18.15-22.56.49-1.87-2.4-2.67-2.89-.8Z"/>
  </g>
  <g>
    <path class="cls-15" d="M385.47,408.94c-2.36,9.27-8.9,17.39-17.46,21.67,10.11-.18,20.11-4.26,27.46-11.21l-10-10.46Z"/>
    <path d="M384.02,408.54c-2.34,8.97-8.51,16.58-16.77,20.77-1.34.68-.69,2.83.76,2.8,10.57-.25,20.8-4.43,28.52-11.65.6-.56.55-1.55,0-2.12-3.33-3.49-6.66-6.97-10-10.46-1.34-1.4-3.46.73-2.12,2.12,3.33,3.49,6.66,6.97,10,10.46v-2.12c-7.14,6.68-16.63,10.54-26.4,10.77.25.93.5,1.86.76,2.8,8.92-4.52,15.63-12.89,18.15-22.56.49-1.87-2.4-2.67-2.89-.8Z"/>
  </g>
  <path class="cls-9" d="M390.48,782.75c-7.88,11.9-16.39,21.09-23.45,27.64h-.01c-.88-.68-57.12-44.04-70.88-63.58-5.97-8.47-15.74-38.02-16.04-38.95h0c27.99-10.7,82.84,6.07,105.49,23.89,27.15,21.33,22.86,23.89,4.89,51Z"/>
  <path class="cls-13" d="M312.52,797.18l-39.13-34.02s-19.67-33.02-12.94-43.18c2.98-4.49,7.48-7.69,13.03-9.8h.01c.3.94,10.07,30.49,16.04,38.96,13.76,19.54,70,62.9,70.88,63.57h.01c-9.03,8.39-15.69,12.48-15.69,12.48l-32.21-28.01"/>
  <path class="cls-14" d="M398.68,726.17c-9.05-22.34,25.2,40.57,11.01,54.07l59.07-58.3c8.16-2.83,78.25-26.47,78.25-26.47,0,0,31.29-7.65,31.94-14.29.25-2.52-5.04-20.04-6.18-23.31-1.13-3.26-35.76-32.62-37.51-34.52-5.25-5.7-21.59,12.77-21.59,12.77,0,0-54.36,37.3-62.52,40.12l-71.04.02c-74.72,17.37-18.75,21.73-7.91,27.28,8.94,4.58,26.49,22.61,26.49,22.61Z"/>
  <path class="cls-8" d="M569.53,702.47c-.14.82-5.57,33.93-15.46,55.54-10.56,23.06-19.25,52.22-35.13,52.74-1.32.04-1.47-1.09-2.53-1.69-18.52-10.38-23.7-44.15-18.45-56.59,0,0,6.56-41.47,18.69-47.21,9.21-4.37,49.26-.74,52.89-2.79Z"/>
  <path class="cls-9" d="M564.19,793.75c-2.63,8.77-17.84,31.02-18.32,31.71v.02c-22.75-15.82-41.08-65.82-41.08-91.93,0-31.29,4.13-29.32,32.82-29.32,12.58,0,23.62,1.83,32.04,3.89.01.94.62,65.38-5.46,85.63Z"/>
  <path class="cls-7" d="M593.94,717.11l-4.14,85.2s-12.21,31.49-22.97,31.49c-4.75,0-9.43-1.8-13.94-4.94v-.02c.49-.69,15.7-22.94,18.33-31.71,6.08-20.25,5.47-84.69,5.46-85.63,10.77,2.62,17.26,5.61,17.26,5.61Z"/>
  <path class="cls-3" d="M486.98,395.07l-5.75-10.72-3.24-6.05c-1.5-2.8-4.61-4.33-7.74-3.82l-13.38,2.17-5.71-6.05c-3.3-3.49-8.11-5.12-12.85-4.36l-24.21,3.9-19.33,6.65-8.02,7.56-5.75,10.72,27-1.21,27-1.21-.03,1.28-.03,1.28,26.02-.07,26.02-.07Z"/>
  <path d="M384.48,397.5l6.86,36.74c.25,1.33-.72,2.42-2.16,2.42h0c-1.44,0-2.83-1.1-3.11-2.43l-7.6-36.75c-.28-1.33.86-2.42,2.53-2.41h0c1.67,0,3.24,1.1,3.48,2.43Z"/>
  <path d="M488.68,397.79l-6.08,36.65c-.22,1.33-1.58,2.41-3.01,2.41h0c-1.44,0-2.45-1.09-2.26-2.42l5.34-36.66c.19-1.33,1.72-2.41,3.38-2.41h0c1.67,0,2.85,1.1,2.63,2.42Z"/>
  <path class="cls-4" d="M437.46,513.91h-3.77c-1.44,0-7.68-2.91-7.94-6.46l-5.23-28.71c-.45-5.05,3.06-9.18,7.81-9.17l12.46.02c4.75,0,8.45,4.14,8.23,9.18l-3.91,28.69c-.1,3.55-6.21,6.46-7.65,6.46Z"/>
  <g>
    <path class="cls-6" d="M433.24,400.32c-.35-.09-.39-.33-.02-.83.39.49.36.74.02.83Z"/>
    <path class="cls-6" d="M433.24,400.32c-.35-.09-.39-.33-.02-.83.39.49.36.74.02.83Z"/>
  </g>
  <g>
    <path d="M398.01,462.4l-11.4-.02c-3.98,0-8.12-3.38-9.2-7.49l-4.71-18.04c-1.07-4.11,1.77-7.47,6.33-7.46l13.02.03c4.55.01,8.78,3.38,9.39,7.49l2.69,18.02c.61,4.11-2.15,7.47-6.13,7.46Z"/>
    <path d="M482.16,462.53l-11.4-.02c-3.98,0-6.9-3.37-6.47-7.47l1.86-17.99c.42-4.1,4.5-7.45,9.05-7.44l13.02.03c4.55.01,7.56,3.37,6.67,7.47l-3.88,17.98c-.88,4.1-4.87,7.45-8.85,7.44Z"/>
  </g>
  <path class="cls-7" d="M433.29,399.4s-.06.07-.07.1c-.03-.03-.06-.07-.09-.1h.16Z"/>
  <path class="cls-7" d="M433.24,400.32c-.35-.09-.39-.33-.02-.83.39.49.36.74.02.83Z"/>
  <path class="cls-4" d="M485.67,446.09l-1.58-7.18-7.23-3.4c-2.63,2.55-3.12,23.82-3.12,23.82-1.9,13.06-24.65,41.39-30.33,41.39h-16.31c-5.68-.01-29.73-28.42-32.24-41.52l-3.4-23.58c.09,1.79-7.4,3.07-7.4,3.07l-3.98,6.46c-4.33-3.92-5.19-9.74-1.71-12.93l10.27-25.59c4.18-3.19,39.76-22.81,44.01-18.9l-.04,11.13c.2.2.38.38.5.53.03.03.06.07.09.1-.38.5-.33.74.02.83.34-.09.37-.34-.02-.83.02-.03.05-.07.07-.1.12-.15.29-.33.48-.53l-.54-11.13c4.09-3.89,40.54,15.92,44.86,19.14l11.39,25.6c3.62,3.2-4.69,9.68-3.82,13.62Z"/>
  <polygon class="cls-3" points="488.77 439.03 490.38 432.33 482.17 405.43 434.06 391.26 433.57 398.89 467.86 429.81 484.05 439.98 488.77 439.03"/>
  <polygon class="cls-3" points="380.09 445.16 377.68 437.8 384.09 405.43 432.21 391.26 432.7 398.89 398.41 429.81 390.56 439.98 380.09 445.16"/>
  <path class="cls-3" d="M472.65,462.46l-4.65,13.71c1.02,1.72-3.86,4.36-6.76,6.62l-10.32,11.94-5.49,4.64c-1.28,1.17-2.67,1.86-3.86,2.02l-.6,3.85c0,.61-2-3.27-2.77-1.13-.75,2.14-1.74,4.11-2.76,4.11s-2.09-1.97-2.94-4.11c-.87-2.14-2.69,1.74-2.72,1.13l-.78-3.85c-1.2-.16-2.61-.85-3.95-2.02l-5.7-4.65-10.87-11.98c-3.01-2.28-8.02-4.93-7.07-6.65l-5.28-13.75c-.99-2.62-2.38-8.71-.2-8.88.08,0,.18,0,.26,0,2.12,0,1.42,1.28,2.5,4.46l9.16,18.47s.01.05.03.08c.31.19.62.4.93.63l19.46,15.56,2.26-3.59c-.06-1.43.38-2.73,1.17-3.68.79-.95,3.08-5.69,3.08-5.69,0,0,2.51,4.75,3.35,5.7.83.95,1.34,2.25,1.34,3.68l2.42,3.6,18.75-15.5c.3-.23.6-.44.9-.63,0-.02.01-.05.02-.07l8.31-18.42c.94-3.17.18-4.45,2.29-4.44.08,0,.18,0,.26,0,2.19.17,1.08,6.25.21,8.86Z"/>
  <path class="cls-3" d="M387.14,436.03l24.54-29.31,9.4-6.01c2.4-1.87,6.37-1.73,8.76.32h0c1.18,1.02.58,3.35.55,4.64-.02,1.29.52,1.54-.67,2.48l-16.75,8.64-17.12,21.25c-.93.94-13.59,4.74-15.82,2.88-2.26-1.86,6.19-3.95,7.1-4.89Z"/>
  <g>
    <path class="cls-3" d="M466.51,422.97l8.35,9.17c.89,1.02,14.9,7.3,12.6,9-2.28,1.7-20.55-1.18-21.45-2.2l-7.06-7.76-25.72-24.86c-2.33-2.04-2.26-5.25.2-7.12h0c2.5-1.87,6.48-1.73,8.8.32l26.83,26.17"/>
    <path class="cls-3" d="M446.32,433.03l-14.55-22.17c-3.16-4.38-1.5-10.02,3.84-12.52l.04-.02c5.44-2.5,2.35,6.65,5.38,11.03l16.22,26.26c1.16,2.12,20.47,3.95,19.29,5.47-1.67,2.2-12.82,3.49-17.42,2.16-6.5-1.86-12.18-9.17-12.81-10.22Z"/>
  </g>
  <path class="cls-3" d="M437.12,461.09h-5.53c-2.05-.01-11.68,10.88-11.22,16.09,0,0,2.36-.4,5.73.79l2.74-2.38,1.95,1.31,1.85-1.3,1.93,1.31,1.87-1.3,1.91,1.31,1.89-1.3,2.92,2.47c3.43-1.11,5.92-.85,5.92-.85.23-5.21-9.91-16.12-11.96-16.12Z"/>
  <path class="cls-4" d="M439.19,449.02l2.66,17.66c-.02,2.4-5.14,4.48-7.47,4.48h0c-2.33,0-7.55-2.1-7.69-4.5l1.82-17.66"/>
  <path class="cls-7" d="M419.91,452.36l-8.76-.02c-2.1,0-4.04-1.7-4.32-3.78h0c-.28-2.07,1.26-3.77,3.43-3.76l9.04.02c2.16,0,4.05,1.7,4.18,3.78h0c.14,2.07-1.47,3.76-3.57,3.76Z"/>
  <path class="cls-10" d="M419.02,448.6c.18,2.08-1.39,3.77-3.5,3.76s-4.01-1.69-4.25-3.78c-.24-2.08,1.32-3.77,3.5-3.76s4.08,1.69,4.25,3.78Z"/>
  <path class="cls-3" d="M421.98,435.3l-16.23.88c-.94.05-1.86-.63-2.04-1.51h0c-.18-.88.45-1.64,1.41-1.69l16.43-.88c.96-.05,1.84.63,1.96,1.51h0c.11.88-.57,1.64-1.52,1.69Z"/>
  <path class="cls-7" d="M448.41,452.42l8.76.02c2.1,0,3.97-1.69,4.15-3.76h0c.18-2.07-1.44-3.77-3.6-3.77l-9.04-.02c-2.16,0-3.97,1.69-4.01,3.76h0c-.04,2.07,1.64,3.77,3.74,3.77Z"/>
  <path class="cls-10" d="M449.12,448.65c-.08,2.08,1.56,3.77,3.67,3.77s3.93-1.68,4.08-3.76-1.5-3.77-3.67-3.77-4,1.68-4.08,3.76Z"/>
  <path class="cls-3" d="M445.98,438.21l16.16.36c.94.02,1.8-.68,1.9-1.56h0c.1-.88-.59-1.62-1.54-1.64l-16.37-.37c-.96-.02-1.77.68-1.81,1.56h0c-.04.88.71,1.62,1.65,1.64Z"/>
  <line class="cls-2" x1="431.59" y1="461.08" x2="437.12" y2="461.09"/>
  <path d="M482.13,408.24s-35.05-12.99-49.09-13.02c-14.04-.04-48.52,12.77-48.52,12.77-1.02,0-2.01-.35-2.79-.91-.79-.56-1.36-1.33-1.54-2.18l-.82-4-.82-4c-.17-.85.1-1.62.69-2.17.59-.56,1.49-.9,2.55-.9,0,0,22.81-17.3,52.2-17.18,28.8.12,50.25,17.47,50.25,17.47,1.07,0,1.98.35,2.59.91.61.56.92,1.33.78,2.18l-.65,3.98-.65,3.98c-.14.85-.68,1.61-1.44,2.17-.76.56-1.74.9-2.75.9Z"/>
  <path d="M599.15,524.88l.43.12s-.08-.03-.13-.03c-.1-.03-.2-.06-.3-.09Z"/>
  <path d="M437.03,669.76h-69.53c-6.6,0-12-5.4-12-12v-71.86c55.46-18.6,90.24,43.41,81.53,83.86Z"/>
  <path class="cls-4" d="M594.94,351.8l47.01,15.5,14.78,4.87s.04.01.06.02c7.12,2.78,14.69,6.34,22.64,10.77,117.69,57.35,125.06,119.53,82.73,160.8-.37.36-.95.41-1.38.12l-45.64-30.99c-.66-.45-.71-1.65.06-1.83,46.59-10.86-72.11-116.87-163.46-115.68-.17,0-.29-.15-.41-.28l-12.29-13.26c-.53-.57-.3-1.49.43-1.76l12.51-4.55c.24-.09.5-.09.74,0l1.94.69c.06.02.13.04.2.05l2.48.39"/>
  <path class="cls-4" d="M437.03,669.76c-3.79,17.6-16.5,13.4-38.63,14.43-25.83,1.2-26.6,1.99-25.6-14.43,1.06-17.39,4.89-34.23-14.45-28.48-.95.9-2,1.69-2.85,2.66-50.1,57.27-132.64,69.29-169.42,53.88l-9.01-33.51c.29.06,9.59-13.87,9.87-13.82,48.09,14.82,94.83,8.18,143.13-31.5,7.68-5.18,18.37-30.73,25.43-33.09,55.46-18.6,90.24,43.41,81.53,83.86Z"/>
  <path class="cls-12" d="M713.69,488.05c-3.03,2.02-14.06,41.37-39.67,56.18-25.83,14.94-66.26,5.33-74.87,4.22-17.16-2.19-93.82-47.9-109.82-52.05-9.99-2.59-26.39-3.49-35.14-2.53-5.25.58-5.8,2.56-6.02,3.18-.05.16-.11.32-.16.49s-.1.33-.14.5l-.03.14-.03.14-1.73,6.69-1.73,6.69s-6.02,3.3-9.17,3.28c-2.9-.02-8.34-3.28-8.34-3.28l-2.1-8.08c-.83-3.19-2.89-5.76-5.54-7.32-2.65-1.56-5.89-2.11-9.09-1.28,0,0-86.93,32.76-116.94,40.15-98.75,24.33-141.74,55.29-142.55,100.43-.81,45.13,37.09,86.16,91.4,85.21,0,0-9.14-5.71-18.23-14.42-9.09-8.72-18.14-20.44-17.97-32.49.15-10.48,9.2-18.32,18.21-23.54,6.14-3.55,12.25-5.89,15.53-7.03.67-.23.61-1.19-.08-1.35-34.6-7.89-37.51-23.59-23.42-39.78,14.43-16.58,52.32-31.34,86.63-41.13,21.05-6,88.09-22.83,89.15-20.17l3.61,21.69,3.61,21.69.48,2.14.48,2.14,1.19,5.33,1.19,5.33c1.47-.92,2.9-1.66,4.29-2.22s2.76-.96,4.08-1.2c10.97-1.95,19.38,7.11,24.18,21.12,4.8,14.01,5.99,32.98,2.51,50.82-.01.04-.02.08-.03.12s-.02.08-.03.12c-.02.08-.03.15-.04.23s-.02.15-.04.23c-.04.22-.08.44-.13.66s-.09.44-.14.66h68.06c3.3,0-6.55-1.64-17.22-4.04-10.67-2.41-22.16-5.58-22.16-8.66l5.19-36.39,5.19-36.39,2.15-23.19,2.15-23.19c.38-.62,54.56,17.57,60.82,21.22,39.93,23.3,75.61,35.11,117.79,29.22,42.17-5.9,98.5-16.03,128.45-52.6,0,0-27.16-.57-48.43-13.14-20.65-12.2-25.33-34.55-25.33-34.55Z"/>
  <path d="M599.15,524.88l.43.12s-.08-.03-.13-.03c-.1-.03-.2-.06-.3-.09Z"/>
  <path class="cls-2" d="M563.84,382.68c0,2.25,16.89-3.96,19.15,1.03"/>
  <path class="cls-2" d="M569.16,376.64l1.46.82c.77.44.73,1.56-.08,1.93l-6.36,2.92-11.24,3.17"/>
  <path class="cls-6" d="M656.76,372.17l-14.81-4.88c4.68,1.23,9.62,2.85,14.81,4.88Z"/>
  <line class="cls-1" x1="804.94" y1="573.86" x2="761.52" y2="544.37"/>
  <line class="cls-1" x1="713.69" y1="511.89" x2="662.96" y2="477.43"/>
  <path class="cls-11" d="M554.67,566.45h-246.15c-8.45,0-15.37,6.39-15.37,14.19l48.49,99.99c0,4.66,4.49,8.47,9.98,8.47h159.94c5.49,0,9.98-3.81,9.98-8.47l48.49-99.99c0-7.81-6.91-14.19-15.37-14.19Z"/>
  <g>
    <path class="cls-15" d="M395.54,460.08c-4.5,4.75-11.11,7.41-17.65,7.11,6.1,3.26,13.42,4.16,20.13,2.46l-2.48-9.57Z"/>
    <path d="M394.48,459.02c-4.31,4.48-10.37,6.91-16.59,6.67-1.47-.06-2.07,2.11-.76,2.8,6.53,3.44,14.12,4.38,21.28,2.62.8-.2,1.25-1.08,1.05-1.85-.83-3.19-1.65-6.38-2.48-9.57-.48-1.87-3.38-1.08-2.89.8.83,3.19,1.65,6.38,2.48,9.57l1.05-1.85c-6.37,1.57-13.17.74-18.97-2.31-.25.93-.5,1.86-.76,2.8,6.97.27,13.88-2.53,18.71-7.55,1.34-1.39-.78-3.52-2.12-2.12Z"/>
  </g>
  <polyline class="cls-2" points="552.36 375.39 556.36 373.94 561.22 372.17 569.16 376.64"/>
  <path class="cls-4" d="M545.29,353.72l-6.51-6.93-11.25,13.88s-9.13,1.82-10.97-.38c-1.01-1.21.52-3.57.52-3.57l13.46-18.69,5.44-4.76,7.38-2.45,14.87,18.92-5.42.57"/>
  <path class="cls-4" d="M570.07,370.42c.06,0,.11.05.12.11l1.24,6.97-.31,1.87-11.51-1.85-2.58-.41-2.32-.83c-.05-.02-.11-.04-.16-.06l-15.01-6.3,5.74-16.19.09-.18c.84-1.62,2.43-2.71,4.24-2.9l3.2-.34,5.42-.57,15.87-2.08s3.24,2.05,4.08-.05c1.1-2.74,11.13-1.37,11.02-.73l5.72,4.91h-3.88l-3.44.13s-3.99,6.65-2.68,8.44c.15.2.8-.16,1,0,2.22,1.75,0,11.3,0,11.3l-3.84,1.85c-.98.47-2.15.02-2.55-.99l-4.88-12.12-4.46,10.12"/>
  <g>
    <path class="cls-17" d="M451.1,625.08c-3.07.46-4.57.69-7.53,1.15,2.35-1.78,3.6-2.68,6.26-4.46,2.66-1.78,4.07-2.68,7.05-4.46,3.05-1.65,4.65-2.47,8-4.12,3.35-1.65,5.1-2.47,8.76-4.12-7.58,1.98-11.16,2.96-17.89,4.94-6.73,1.98-9.88,2.96-15.75,4.94-1.03.94-1.53,1.4-2.49,2.34-.96.94-1.43,1.4-2.32,2.34-.89-.94-1.36-1.4-2.32-2.34-.96-.94-1.46-1.4-2.49-2.34-5.87-1.98-9.02-2.96-15.75-4.94s-10.3-2.96-17.88-4.94c3.65,1.65,5.4,2.47,8.75,4.12s4.95,2.47,7.99,4.12c3,1.8,4.42,2.7,7.1,4.5,2.68,1.8,3.94,2.7,6.3,4.5-3.01-.34-4.54-.51-7.63-.85-7.34-1.18-11.19-1.77-19.22-2.95.87.24,1.3.36,2.16.6,1.21.24,1.81.36,2.99.6,6.13,2.09,8.97,3.13,14.24,5.21,4.84,1.19,7.14,1.78,11.51,2.96-.06.17-1.99.33-3.93.5-1.94.17-3.88.34-4.04.51-1.23,1.39-2.79,3.62-3.56,6.19-.76,2.57-.52,5.82.23,8.01.75,2.19.82,5.84,2.84,6.95,2.02,1.11,4.46,2.21,6.68,3.03,2.22.82,4.23,1.33,5.96,1.33s3.74-.51,5.96-1.33c2.22-.82,4.67-1.92,6.69-3.03s2.09-4.75,2.84-6.95,1-5.44.23-8.01c-.76-2.57-2.32-4.8-3.56-6.19-.15-.17-2.1-.34-4.04-.51-1.94-.17-3.87-.34-3.93-.5,4.37-1.19,6.67-1.78,11.51-2.96,5.26-2.09,8.11-3.13,14.24-5.21,1.19-.24,1.78-.36,2.99-.6.86-.24,1.29-.36,2.16-.6-7.95,1.03-11.78,1.55-19.12,2.58ZM431.1,645.28c-1.41-1.14-2.18-1.78-3.79-2.96,1.08-1.27,1.67-1.9,2.94-3.17,1.62,1.19,2.39,1.78,3.82,2.97-1.28,1.27-1.87,1.94-2.97,3.16ZM431.37,637.46c1.36-1.27,2.09-1.9,3.64-3.17,1.66,1.19,2.44,1.78,3.9,2.97-1.56,1.27-2.3,1.9-3.67,3.17-1.45-1.19-2.23-1.78-3.87-2.97ZM439.79,639.15c1.38,1.19,2.02,1.78,3.21,2.97-1.55,1.27-2.28,1.94-3.62,3.16-1.18-1.14-1.81-1.78-3.18-2.96,1.34-1.27,2.06-1.9,3.59-3.17Z"/>
    <path class="cls-17" d="M440.87,611.16c-2.08-2.69-3.23-4.04-5.73-6.73-2.5,2.69-3.65,4.04-5.73,6.73,2.53,3.13,3.68,4.7,5.73,7.83,2.05-3.13,3.2-4.7,5.73-7.83Z"/>
  </g>
  <path class="cls-14" d="M570.48,702.58h0c-3.48,2.15-41.9-1.64-50.74,2.93-11.64,6.01-17.93,49.37-17.93,49.37-5.3,13.72-7.88,34.28,10.6,52l-101.78-57.53c-10.62-3.72-101.82-34.73-101.82-34.73,0,0-9.95-7.52-10.79-16.23-.33-3.31-1.51-6.08-.03-10.38,1.47-4.27,3.09-8.31,5.38-10.81,6.83-7.48,25.29-12.59,25.29-12.59,0,0,94.26,21.09,104.89,24.79l92.44.03c36.29,8.5,46.58,11.88,44.5,13.16Z"/>
  <g>
    <g>
      <path class="cls-5" d="M412.57,434.88c-10.07-.05-17.52,7.85-16.49,17.5,1.02,9.66,9.33,17.51,18.51,17.51s16.66-7.92,16.5-17.51c-.16-9.97-8.75-17.45-18.52-17.5ZM414.47,467.89c-8.19,0-15.53-6.94-16.4-15.51-.86-8.56,5.68-15.5,14.61-15.5s16.28,6.94,16.4,15.5c.12,8.57-6.43,15.51-14.62,15.51Z"/>
      <path class="cls-5" d="M456.13,434.95c-9.77.05-18.35,7.54-18.51,17.5-.15,9.59,7.31,17.51,16.49,17.51s17.49-7.85,18.52-17.51c1.02-9.65-6.43-17.55-16.5-17.5ZM454.23,467.96c-8.19,0-14.73-6.94-14.61-15.51.13-8.56,7.46-15.5,16.39-15.5s15.48,6.94,14.62,15.5c-.86,8.57-8.21,15.51-16.4,15.51Z"/>
    </g>
    <path class="cls-5" d="M438.61,451.24s-2.63-1.08-4.25-1.09c-1.58,0-4.25,1.01-4.25,1.01-.04-.15-.46-1.74-.46-1.74,0,0,2.84-1.27,4.7-1.27h.02c1.87,0,4.72,1.3,4.72,1.3,0,0-.36,1.36-.47,1.79Z"/>
  </g>
  <g>
    <path class="cls-17" d="M417.56,525.73c.01.32.04.58.12,1.14.24,1.66.36,2.49.6,4.15.08.53.13.82.21,1.14h-1.13c-.02-.3-.06-.63-.14-1.14-.26-1.66-.38-2.49-.64-4.15-.09-.58-.13-.8-.22-1.14h1.19Z"/>
    <path class="cls-17" d="M424.01,532.16c-.04-.25-.11-.52-.19-.83-.25-.91-.37-1.36-.62-2.27-.08-.3-.16-.66-.27-1.17,0,.32-.01.8-.04,1.17-.06.91-.09,1.37-.14,2.28-.03.39-.03.61-.02.82h-1.02c-.05-.22-.1-.39-.23-.84-.55-1.86-.83-2.78-1.41-4.64-.12-.39-.25-.75-.33-.96h1.23c.04.28.09.53.18.85.25.94.37,1.41.61,2.35.03.12.11.48.24,1.09,0-.65.01-.93.02-1.09.06-.96.09-1.44.16-2.4.03-.35.03-.59.03-.8h.96c.04.2.1.42.2.78.27.95.4,1.43.66,2.38.07.25.13.5.25,1.13q0-.15,0-.47c0-.17,0-.54.01-.67.05-.92.07-1.38.12-2.3.02-.36.02-.58,0-.85h1.23c-.04.21-.08.57-.12.96-.19,1.85-.28,2.78-.45,4.63-.04.36-.06.66-.05.84h-1.03Z"/>
    <path class="cls-17" d="M429.12,532.16c-.06-.37-.1-.57-.17-.84-.07-.26-.11-.39-.18-.66h-1.48c-.04.26-.06.39-.09.66-.05.31-.06.55-.07.84h-1.2c.06-.23.09-.42.17-.94.3-1.86.46-2.79.79-4.66.07-.38.1-.61.11-.84h1.41c.05.22.1.43.23.84.57,1.86.84,2.79,1.38,4.66.12.41.21.73.29.94h-1.2ZM427.81,527.05c-.14.93-.21,1.39-.34,2.32h.99c-.25-.93-.38-1.39-.64-2.32Z"/>
    <path class="cls-17" d="M431.54,530.07c.03.28.07.42.15.57.13.23.35.36.62.36.4,0,.63-.26.62-.7,0-.24-.09-.45-.23-.54-.11-.08-.25-.14-.79-.32-.48-.16-.66-.25-.86-.45-.34-.34-.54-.86-.57-1.49-.05-1.19.59-1.94,1.66-1.94.69,0,1.22.3,1.52.88.14.25.21.49.28.93-.45.07-.68.11-1.13.18-.07-.5-.27-.71-.68-.71-.33,0-.56.26-.55.61,0,.22.09.38.26.5.11.07.11.07.74.26.4.12.66.26.87.44.39.35.58.87.59,1.58,0,.58-.11,1.08-.35,1.42-.29.43-.74.66-1.34.66-.43,0-.87-.14-1.15-.38-.26-.22-.47-.55-.59-.99-.06-.19-.09-.36-.14-.72.43-.06.65-.09,1.08-.15Z"/>
    <path class="cls-17" d="M438.16,532.16c-.02-.27-.07-.56-.19-1.14-.17-.82-.26-1.23-.44-2.06,0-.04-.15-.76-.17-.82q-.05-.28-.08-.39c.02.49.03,1.12.03,1.53-.01.67-.02,1.01-.03,1.68,0,.53,0,.87.02,1.2h-1.01c.03-.35.05-.67.05-1.2.01-1.61.02-2.42.03-4.03,0-.46,0-.87-.03-1.21h1.43c.03.33.07.58.18,1.09.29,1.33.43,2,.71,3.33.35-1.33.53-2,.89-3.33.14-.52.19-.77.24-1.09h1.43c-.05.37-.08.69-.1,1.21-.08,1.61-.12,2.42-.19,4.03-.03.59-.03.89-.02,1.2h-1.01c.04-.36.07-.65.09-1.2.03-.67.04-1.01.07-1.69,0-.19.05-.77.07-1.01.03-.41.03-.41.04-.53-.14.6-.2.88-.28,1.16-.24.85-.35,1.27-.58,2.12-.15.55-.23.89-.26,1.14h-.89Z"/>
    <path class="cls-17" d="M444.47,532.16c-.01-.37-.03-.57-.06-.84-.04-.26-.05-.39-.09-.66h-1.48c-.07.26-.11.39-.18.66-.09.31-.14.55-.18.84h-1.2c.09-.23.14-.42.3-.94.55-1.86.83-2.79,1.41-4.66.12-.38.18-.61.23-.84h1.41c.02.22.04.43.12.84.32,1.86.47,2.79.76,4.66.06.41.12.73.16.94h-1.2ZM443.82,527.05c-.26.93-.39,1.39-.65,2.32h.99c-.13-.93-.2-1.39-.34-2.32Z"/>
    <path class="cls-17" d="M446.56,526.84c.05-.53.06-.78.06-1.14.21.02.35.02.8.02h1.13c.67,0,1.18.26,1.47.77.33.55.42,1.37.29,2.4-.13,1.06-.45,1.91-.91,2.5-.4.51-.92.77-1.53.77h-1.08c-.39,0-.54,0-.75.02.06-.34.1-.6.15-1.13.16-1.69.23-2.53.39-4.22ZM447.91,530.81c.34,0,.59-.13.81-.41.25-.32.43-.84.5-1.49.08-.66.03-1.14-.14-1.44-.16-.27-.4-.39-.78-.39h-.7c-.15,1.49-.23,2.24-.38,3.73h.7Z"/>
    <path class="cls-17" d="M453.61,532.22c-.21-.04-.4-.05-.84-.05h-1.61c-.39,0-.53,0-.76.02.07-.31.12-.6.19-1.13.22-1.69.33-2.53.55-4.22.06-.48.09-.75.1-1.13.22.02.37.02.79.02h1.73c.37,0,.55-.02.81-.05-.09.58-.14.87-.23,1.45-.24-.04-.43-.05-.79-.05h-1.39c-.06.45-.09.68-.16,1.14h1.14c.35,0,.48,0,.8-.05-.09.57-.13.86-.22,1.43-.24-.04-.42-.05-.78-.05h-1.13c-.07.52-.11.78-.18,1.3h1.34c.39,0,.62-.02.85-.05l-.23,1.45Z"/>
    <path class="cls-17" d="M421.69,541.44c-.05-.25-.12-.52-.21-.83-.26-.91-.39-1.36-.66-2.27-.09-.3-.17-.66-.29-1.17.01.32.02.8.01,1.17-.02.91-.03,1.37-.04,2.28,0,.39,0,.61,0,.82h-.94c-.06-.22-.1-.39-.24-.84-.58-1.86-.88-2.78-1.48-4.64-.13-.39-.26-.75-.34-.96h1.14c.05.28.11.53.2.85.27.94.4,1.41.66,2.35.03.12.12.48.26,1.09-.02-.65-.03-.93-.02-1.09.02-.96.03-1.44.06-2.4.01-.35,0-.59,0-.8h.89c.05.2.1.42.22.78.28.95.42,1.43.7,2.38.07.25.14.5.28,1.13q0-.15-.02-.47c0-.17-.02-.54-.01-.67,0-.92.01-1.38.03-2.3,0-.36,0-.58-.03-.85h1.14c-.03.21-.06.57-.08.96-.11,1.85-.16,2.78-.25,4.63-.02.36-.03.66-.02.84h-.94Z"/>
    <path class="cls-17" d="M424.42,535.01c0,.32.02.58.07,1.14.16,1.66.24,2.49.4,4.15.05.53.09.82.15,1.14h-1.04c0-.3-.03-.63-.08-1.14-.18-1.66-.26-2.49-.44-4.15-.06-.58-.09-.8-.16-1.14h1.1Z"/>
    <path class="cls-17" d="M427.55,540.27c.03.46.07.8.12,1.17h-1.04c0-.36-.02-.68-.06-1.17-.13-1.56-.19-2.34-.32-3.9h-.58c-.31,0-.39,0-.74.05-.05-.59-.08-.89-.14-1.48.17.03.45.05.75.05h2.19c.35,0,.55-.02.78-.05.04.59.05.89.09,1.48-.22-.04-.42-.05-.77-.05h-.56c.11,1.56.17,2.34.28,3.9Z"/>
    <path class="cls-17" d="M432.66,535.01c-.02.32-.03.6-.01,1.14.04,1.66.06,2.49.1,4.15.01.5.03.77.07,1.14h-1.01c.02-.32.02-.61,0-1.14-.02-.6-.03-.9-.05-1.5h-1.63c.03.6.04.9.07,1.5.02.5.05.8.09,1.14h-1.01c.01-.32,0-.6-.03-1.14-.09-1.66-.14-2.49-.23-4.15-.03-.53-.05-.81-.1-1.14h1.08c-.01.36,0,.67.01,1.14.02.51.04.77.06,1.28h1.65c-.02-.51-.03-.77-.04-1.28-.02-.53-.04-.84-.08-1.14h1.07Z"/>
    <path class="cls-17" d="M437.14,538.19c-.03,2.04-.81,3.4-1.96,3.4s-1.92-1.32-1.96-3.37c-.04-2.04.73-3.35,1.96-3.35s2,1.3,1.96,3.33ZM436.13,538.21c0-1.25-.35-2.01-.95-2.01s-.97.77-.95,2.01c.01,1.26.38,2.04.96,2.04s.94-.77.94-2.04Z"/>
    <path class="cls-17" d="M441.51,535.01c-.05.33-.07.61-.1,1.17-.06,1.06-.09,1.6-.14,2.66-.1,1.76-.79,2.76-1.93,2.76-.58,0-1.05-.27-1.32-.76-.26-.48-.39-1.15-.37-2.02.02-1.06.03-1.59.06-2.65.01-.53,0-.87-.02-1.17h1.08c-.04.29-.06.6-.07,1.17-.03,1.06-.05,1.6-.08,2.66-.03.97.23,1.44.79,1.44s.86-.46.91-1.44l.12-2.66c.03-.58.03-.82.01-1.17h1.08Z"/>
    <path class="cls-17" d="M443.84,540.27c-.04.46-.05.8-.05,1.17h-1.04c.05-.36.09-.68.12-1.17.11-1.56.16-2.34.27-3.9h-.58c-.31,0-.4,0-.75.05.03-.59.05-.89.09-1.48.16.03.44.05.74.05h2.19c.35,0,.55-.02.78-.05-.05.59-.08.89-.13,1.48-.22-.04-.41-.05-.76-.05h-.56c-.12,1.56-.18,2.34-.31,3.9Z"/>
    <path class="cls-17" d="M449.62,541.44c.01-.37.01-.57,0-.84-.02-.26-.02-.39-.04-.66h-1.36c-.08.26-.12.39-.21.66-.1.31-.16.55-.22.84h-1.1c.1-.23.16-.42.33-.94.61-1.86.93-2.79,1.58-4.66.13-.38.21-.61.26-.84h1.3c0,.22.01.43.06.84.18,1.86.27,2.79.41,4.66.03.41.06.73.09.94h-1.1ZM449.34,536.33c-.3.93-.45,1.39-.74,2.32h.91c-.06-.93-.1-1.39-.17-2.32Z"/>
    <path class="cls-17" d="M453.09,535.01c-.08.32-.13.58-.22,1.14-.26,1.66-.39,2.49-.65,4.15-.08.53-.12.82-.14,1.14h-1.04c.07-.3.13-.63.21-1.14.24-1.66.37-2.49.61-4.15.09-.58.11-.8.13-1.14h1.1Z"/>
  </g>
</svg>