<?xml version="1.0" encoding="UTF-8"?>
<svg id="Layer_1" xmlns="http://www.w3.org/2000/svg" viewBox="0 0 650 650">
  <g id="blender_logo_no_socket">
    <g>
      <path d="M337.57,354.84c1.1-19.68,10.74-37.02,25.28-49.31,14.26-12.07,33.45-19.45,54.39-19.45s40.11,7.38,54.38,19.45c14.53,12.29,24.16,29.63,25.28,49.29,1.1,20.22-7.02,39.01-21.28,52.93-14.54,14.16-35.22,23.05-58.37,23.05s-43.88-8.89-58.4-23.05c-14.27-13.92-22.38-32.71-21.26-52.91Z"/>
      <path d="M210.71,394.61c.14,7.7,2.59,22.67,6.28,34.35,7.74,24.74,20.88,47.62,39.15,67.79,18.75,20.73,41.85,37.38,68.52,49.2,28.04,12.42,58.41,18.74,89.97,18.69,31.5-.04,61.88-6.49,89.92-19,26.67-11.94,49.75-28.66,68.47-49.4,18.26-20.25,31.38-43.18,39.14-67.92,3.9-12.5,6.37-25.18,7.36-37.91.97-12.54.56-25.1-1.22-37.65-3.48-24.46-11.94-47.4-24.97-68.32-11.92-19.22-27.28-36.05-45.54-50.21l.04-.03-184.32-141.52c-.17-.12-.3-.26-.48-.37-12.09-9.28-32.43-9.25-45.73.05-13.45,9.41-14.99,24.97-3.02,34.78l-.05.05,76.88,62.51-234.31.25h-.31c-19.37.02-37.99,12.73-41.67,28.79-3.79,16.36,9.37,29.93,29.5,30l-.03.07,118.76-.23L51.12,411.25c-.27.2-.56.41-.81.6-19.99,15.31-26.45,40.76-13.86,56.87,12.78,16.38,39.95,16.41,60.15.09l115.66-94.66s-1.69,12.78-1.55,20.45ZM507.92,437.4c-23.83,24.28-57.2,38.05-93.3,38.12-36.15.06-69.52-13.58-93.35-37.82-11.65-11.81-20.2-25.4-25.48-39.88-5.17-14.23-7.18-29.33-5.85-44.56,1.26-14.89,5.69-29.1,12.77-41.95,6.95-12.63,16.53-24.05,28.35-33.71,23.17-18.88,52.66-29.1,83.51-29.14,30.88-.04,60.35,10.08,83.54,28.9,11.8,9.62,21.37,20.99,28.32,33.6,7.11,12.84,11.51,27,12.82,41.93,1.31,15.22-.7,30.29-5.87,44.53-5.29,14.52-13.81,28.11-25.46,39.97Z"/>
    </g>
  </g>
</svg>