<?xml version="1.0" encoding="UTF-8"?>
<svg id="Layer_1" xmlns="http://www.w3.org/2000/svg" viewBox="0 0 45 45">
  <defs>
    <style>
      .cls-1 {
        fill: #fff;
      }
    </style>
  </defs>
  <path class="cls-1" d="M22.5,0h0c12.43,0,22.5,10.07,22.5,22.5h0c0,12.43-10.07,22.5-22.5,22.5h0C10.07,45,0,34.93,0,22.5h0C0,10.07,10.07,0,22.5,0Z"/>
  <path d="M22.19,25.75c-.44.69-.86,1.37-1.81,2.02-.51.35-1.67,1.05-3.32,1.05-3.16,0-5.7-2.29-5.7-6.33,0-3.53,2.4-6.31,5.77-6.31,1.37,0,2.58.47,3.48,1.18.83.66,1.21,1.32,1.55,1.91l-2.36,1.18c-.17-.39-.37-.79-.89-1.23-.57-.46-1.15-.59-1.64-.59-1.92,0-2.94,1.79-2.94,3.78,0,2.62,1.33,3.91,2.94,3.91s2.18-1.08,2.58-1.77l2.35,1.2h0ZM30.47,16.55h3.17l-4.13,11.91h-3.04l-4.08-11.91h3.17l2.46,8.47,2.45-8.47Z"/>
</svg>