<?xml version="1.0" encoding="UTF-8"?>
<svg id="Layer_1" xmlns="http://www.w3.org/2000/svg" xmlns:xlink="http://www.w3.org/1999/xlink" viewBox="0 0 45 45">
  <defs>
    <style>
      .cls-1 {
        fill: none;
      }

      .cls-2 {
        fill: #fff;
      }

      .cls-3 {
        clip-path: url(#clippath);
      }
    </style>
    <clipPath id="clippath">
      <rect class="cls-1" x="12" y="12" width="21" height="21"/>
    </clipPath>
  </defs>
  <path class="cls-2" d="M22.5,0h0c12.43,0,22.5,10.07,22.5,22.5h0c0,12.43-10.07,22.5-22.5,22.5h0C10.07,45,0,34.93,0,22.5h0C0,10.07,10.07,0,22.5,0Z"/>
  <g class="cls-3">
    <path d="M22.5,12.26c-5.8,0-10.5,4.7-10.5,10.5,0,4.64,3.01,8.58,7.18,9.96.53.1.72-.23.72-.51,0-.25,0-.91,0-1.78-2.92.63-3.54-1.41-3.54-1.41-.48-1.21-1.17-1.53-1.17-1.53-.95-.65.08-.64.08-.64,1.05.07,1.61,1.08,1.61,1.08.94,1.61,2.46,1.14,3.06.87.09-.68.37-1.14.66-1.4-2.33-.26-4.78-1.17-4.78-5.19,0-1.15.41-2.08,1.08-2.82-.12-.26-.47-1.33.09-2.78,0,0,.88-.28,2.89,1.08.86-.23,1.74-.35,2.62-.35.89,0,1.78.12,2.62.35,2-1.36,2.88-1.08,2.88-1.08.56,1.45.21,2.52.11,2.78.67.74,1.07,1.67,1.07,2.82,0,4.03-2.45,4.92-4.79,5.18.36.31.71.96.71,1.94,0,1.4-.01,2.54-.01,2.88,0,.27.18.6.72.5,4.2-1.37,7.21-5.31,7.21-9.95,0-5.8-4.7-10.5-10.5-10.5h0Z"/>
  </g>
</svg>