<?xml version="1.0" encoding="UTF-8"?>
<svg id="Layer_1" xmlns="http://www.w3.org/2000/svg" xmlns:xlink="http://www.w3.org/1999/xlink" viewBox="0 0 45 45">
  <defs>
    <style>
      .cls-1 {
        fill: none;
      }

      .cls-2 {
        fill: #fff;
      }

      .cls-3 {
        clip-path: url(#clippath);
      }
    </style>
    <clipPath id="clippath">
      <rect class="cls-1" x="11.54" y="11.54" width="23.08" height="23.08"/>
    </clipPath>
  </defs>
  <path class="cls-2" d="M22.5,0h0c12.43,0,22.5,10.07,22.5,22.5h0c0,12.43-10.07,22.5-22.5,22.5h0C10.07,45,0,34.93,0,22.5h0C0,10.07,10.07,0,22.5,0Z"/>
  <g class="cls-3">
    <path d="M17.5,31.73h-4.19v-13.48h4.19v13.48ZM15.41,16.41c-1.34,0-2.42-1.11-2.42-2.45,0-.64.26-1.26.71-1.71.45-.45,1.07-.71,1.71-.71s1.26.26,1.71.71c.46.45.71,1.07.71,1.71,0,1.34-1.09,2.45-2.42,2.45ZM33.17,31.73h-4.18v-6.56c0-1.56-.03-3.57-2.18-3.57s-2.51,1.7-2.51,3.46v6.68h-4.18v-13.48h4.01v1.84h.06c.56-1.06,1.92-2.18,3.96-2.18,4.24,0,5.02,2.79,5.02,6.41v7.41h0Z"/>
  </g>
</svg>