<?xml version="1.0" encoding="UTF-8"?>
<svg id="Layer_1" xmlns="http://www.w3.org/2000/svg" xmlns:xlink="http://www.w3.org/1999/xlink" viewBox="0 0 22.56 15.04">
  <defs>
    <style>
      .cls-1 {
        fill: none;
      }

      .cls-2 {
        clip-path: url(#clippath);
      }
    </style>
    <clipPath id="clippath">
      <rect class="cls-1" x="-.64" y="-3.88" width="23.84" height="22.8"/>
    </clipPath>
  </defs>
  <g class="cls-2">
    <g>
      <path d="M21.62,7.22C19.39,3.28,15.48.89,11.15.89S2.9,3.28.69,7.22l-.19.3.17.3c2.23,3.95,6.14,6.33,10.48,6.33s8.25-2.36,10.48-6.33l.17-.3-.17-.3ZM11.15,12.86c-3.73,0-7.15-1.99-9.14-5.34,1.99-3.35,5.41-5.34,9.14-5.34s7.11,1.99,9.13,5.34c-2.02,3.35-5.41,5.34-9.13,5.34Z"/>
      <path d="M11.34,3.2c-.9,0-1.77.27-2.52.75-.74.48-1.32,1.16-1.66,1.96-.34.8-.42,1.67-.24,2.51.18.84.62,1.61,1.26,2.22.64.6,1.45,1.01,2.33,1.18.88.16,1.79.07,2.62-.26.83-.33,1.53-.89,2.03-1.61.5-.72.76-1.56.75-2.42,0-.57-.12-1.14-.35-1.66s-.57-1.01-.99-1.41c-.43-.4-.93-.72-1.48-.93-.55-.22-1.15-.32-1.74-.32ZM11.34,10.62c-.63,0-1.25-.19-1.78-.53-.52-.34-.93-.82-1.17-1.38-.24-.56-.3-1.18-.17-1.77.13-.59.43-1.14.88-1.57.45-.43,1.02-.72,1.64-.84.62-.12,1.27-.06,1.85.17.59.23,1.09.62,1.44,1.13.35.5.55,1.09.55,1.7,0,.41-.08.81-.24,1.19-.16.38-.4.72-.7,1.01s-.66.52-1.06.67c-.4.15-.82.23-1.25.23Z"/>
    </g>
  </g>
</svg>